# xmcd CD database file
#
# Track frame offsets:
#	150
#	11933
#	25245
#	39548
#	53661
#	68373
#	81366
#	91850
#	104651
#	118522
#	133360
#	146594
#	160558
#	175623
#	189925
#	204114
#	217148
#	230479
#
# Disc length: 3229 seconds
#
# Revision: 3
# Processed by: cddbd v1.5.2PL0 Copyright (c) Steve Scherf et al.
# Submitted via: CDex 1.51
#
DISCID=f10c9b12
DTITLE=Count Basie - The Mad Boogie
DYEAR=2002
DGENRE=Jazz
TTITLE0=Red Bank Boogie
TTITLE1=Jimmy's Blues
TTITLE2=Avenue C
TTITLE3=This Heart Of Mine
TTITLE4=That Old Feeling
TTITLE5=Blue Skies
TTITLE6=Jivin' Joe
TTITLE7=High Tide
TTITLE8=Queer Street
TTITLE9=Patience And Fortitude
TTITLE10=The Mad Boogie
TTITLE11=Lazy Lady Blues
TTITLE12=Rambo
TTITLE13=Stay Cool
TTITLE14=The King
TTITLE15=Brand New Wagon
TTITLE16=Me And The Blues
TTITLE17=Bill's Mill
EXTD=YEAR: 2002
EXTT0=
EXTT1=
EXTT2=
EXTT3=
EXTT4=
EXTT5=
EXTT6=
EXTT7=
EXTT8=
EXTT9=
EXTT10=
EXTT11=
EXTT12=
EXTT13=
EXTT14=
EXTT15=
EXTT16=
EXTT17=
PLAYORDER=
